<svg width="33" height="32" viewBox="0 0 33 32" fill="none" xmlns="http://www.w3.org/2000/svg">
<g clip-path="url(#clip0_884_1731)">
<path d="M16.5249 9.28808e-06C25.3424 9.28808e-06 32.5095 7.21145 32.5002 16.0408C32.4909 24.8701 25.2805 32.0314 16.4476 32C7.61471 31.9687 0.459991 24.7635 0.500168 15.9937C0.543437 7.1268 7.68888 -0.00939694 16.5249 9.28808e-06ZM16.5249 30.2661C24.3843 30.2661 30.791 23.8981 30.8034 16.047C30.8158 8.19597 24.4368 1.7433 16.528 1.7433C8.61915 1.7433 2.20309 8.12699 2.20618 16.0063C2.20927 23.8856 8.59442 30.2567 16.5156 30.2755L16.5249 30.2661Z" fill="#FFFDFB"/>
<path d="M6.45901 12.642C6.38391 11.955 6.45848 11.2597 6.67745 10.6052C6.89641 9.95075 7.2544 9.35305 7.72614 8.85439C8.89129 7.60023 10.384 7.80403 11.1783 9.29648C11.4596 9.8295 11.7006 10.3845 12.0004 10.905C12.6649 12.0494 12.8256 13.1186 11.8181 14.1877C11.166 14.8807 11.3483 15.6269 11.9355 16.3041C13.4808 18.107 15.2579 19.6089 17.4986 20.4868C18.5803 20.9069 19.4086 20.8003 19.8876 19.6778C20.549 18.1478 21.572 18.0882 22.8639 18.7717C23.2687 18.9849 23.7107 19.126 24.1341 19.2984C26.1553 20.1262 26.4397 21.9855 24.7522 23.5218C24.157 24.0721 23.4414 24.4711 22.6644 24.6858C21.8875 24.9006 21.0713 24.9251 20.2832 24.7572C17.5437 24.2524 14.97 23.0675 12.7916 21.3082C10.5757 19.5587 8.26392 17.1193 7.00295 14.5577C6.71009 13.9573 6.52585 13.3084 6.45901 12.642Z" fill="#FFFDFB"/>
</g>
<defs>
<clipPath id="clip0_884_1731">
<rect width="32" height="32" fill="white" transform="translate(0.5)"/>
</clipPath>
</defs>
</svg>
