<svg width="117" height="26" viewBox="0 0 117 26" fill="none" xmlns="http://www.w3.org/2000/svg">
<path d="M3.75578 0.785156V16.7704L16.8259 0.785156H20.0633V23.4074H16.3076V6.82963L2.60649 23.4074H0V0.785156H3.75578Z" fill="black"/>
<path d="M50.9658 0.785156H66.034V4.04443H60.776V23.4074H57.0202V4.04443H51.0109L50.9658 0.785156Z" fill="black"/>
<path d="M96.9594 0.785156H100.715V10.3112L111.276 0.785156H116.144L104.524 11.1555L100.678 14.6074V23.4222H96.9219L96.9594 0.785156Z" fill="black"/>
<path d="M46.2568 6.17622L46.3922 6.09434L46.3032 5.96346C44.9097 3.9154 42.8896 2.36006 40.5376 1.5237C38.1637 0.679278 35.5809 0.591177 33.1535 1.27178C30.7421 1.93357 28.6096 3.3418 27.0705 5.28936L27.0705 5.28938C25.554 7.20914 24.7208 9.56834 24.7001 12.0023L24.7001 12.0032C24.6945 14.4355 25.5008 16.8018 26.9945 18.7367L26.9948 18.7371C28.5193 20.6956 30.6347 22.1259 33.0359 22.8223L33.0361 22.8224C35.4591 23.5214 38.0428 23.4571 40.427 22.6386L40.4271 22.6386C42.7857 21.8259 44.8201 20.2923 46.2342 18.2602L46.3238 18.1314L46.1911 18.0476L43.369 16.2663L43.2479 16.1898L43.1659 16.3073C42.1892 17.7066 40.7817 18.7594 39.151 19.3096L39.1503 19.3098C37.5127 19.8725 35.7378 19.9163 34.0737 19.4353L34.0735 19.4352C32.4237 18.9613 30.9719 17.9782 29.9313 16.6308L29.9311 16.6306C28.9037 15.3063 28.3494 13.6846 28.3538 12.0178C28.3658 10.346 28.9365 8.72454 29.978 7.40463C31.0344 6.06858 32.4979 5.1017 34.1536 4.64644L34.1542 4.64628C35.8232 4.18014 37.5981 4.24019 39.2307 4.818C40.8457 5.39146 42.2316 6.45995 43.1853 7.86637L43.2652 7.9842L43.387 7.91056L46.2568 6.17622Z" fill="black" stroke="black" stroke-width="0.3"/>
<path d="M93.2158 12.0634L93.2159 12.0634L93.2158 12.0588C93.1933 10.5602 92.8716 9.08072 92.2692 7.70484C91.6668 6.32896 90.7956 5.08374 89.7053 4.04019C88.615 2.99664 87.327 2.17521 85.915 1.62273C84.5037 1.07052 82.996 0.797779 81.4779 0.820007C78.412 0.776917 75.4536 1.93555 73.2526 4.04216C71.051 6.14933 69.7874 9.03269 69.7402 12.0588L69.7401 12.0588L69.7402 12.0634C69.7874 15.0895 71.051 17.9728 73.2526 20.08C75.4536 22.1866 78.412 23.3453 81.478 23.3022C84.544 23.3453 87.5024 22.1866 89.7034 20.08C91.9049 17.9728 93.1685 15.0895 93.2158 12.0634ZM73.4483 12.0588L73.446 11.9111H73.4248C73.4955 9.89223 74.3554 7.97563 75.8286 6.56507C77.3389 5.11903 79.3702 4.3232 81.4758 4.35318L81.4758 4.35323L81.4796 4.35319C83.5807 4.33026 85.6049 5.12921 87.1094 6.5745C88.6132 8.01917 89.4753 9.99195 89.5076 12.061C89.4735 14.129 88.6108 16.1 87.1071 17.5432C85.6028 18.9871 83.5796 19.7851 81.4796 19.7622L81.4796 19.7622L81.4762 19.7622C79.3758 19.7869 77.3515 18.9894 75.8468 17.5452C74.3423 16.101 73.48 14.1281 73.4483 12.0588Z" fill="black" stroke="black" stroke-width="0.3"/>
<path d="M103.697 12.0801C104.718 15.4267 108.688 22.3858 116.374 23.4399C112.77 15.1665 106.626 12.1382 103.697 12.0801Z" fill="#769D22"/>
</svg>
