<svg width="33" height="32" viewBox="0 0 33 32" fill="none" xmlns="http://www.w3.org/2000/svg">
<g clip-path="url(#clip0_884_1726)">
<path d="M0.500025 16.0012C0.500025 7.15042 7.67844 0.00585938 16.517 0.00585938C25.2412 0.00585938 32.4784 7.21942 32.4969 15.7973C32.5217 24.8237 25.3865 32.0498 16.3161 32.0059C7.60737 31.9588 0.484568 24.7515 0.500025 16.0012ZM2.20653 16.0012C2.20653 23.842 8.59044 30.2683 16.449 30.2809C24.3076 30.2934 30.7811 23.9141 30.7873 16.1047C30.7886 14.2091 30.4202 12.3321 29.7032 10.5817C28.9862 8.83132 27.9349 7.24215 26.6099 5.90576C25.2849 4.56938 23.7123 3.5122 21.9827 2.79513C20.2532 2.07807 18.4008 1.71529 16.5325 1.72771C8.609 1.71202 2.21581 8.09132 2.20653 16.0012Z" fill="#FFFDFB"/>
<path d="M24.5023 10.8854C24.0478 13.7803 23.5995 16.6782 23.1358 19.5699C22.9689 20.6049 22.7803 21.6336 22.5763 22.6592C22.3104 23.9733 21.5252 24.3654 20.4122 23.6534C18.7088 22.5494 17.0425 21.3827 15.3824 20.2035C14.6713 19.7017 14.6466 19.2375 15.2865 18.6008C16.622 17.2616 17.9916 15.9537 19.3456 14.6333C19.604 14.3922 19.8457 14.1334 20.069 13.8587C20.1618 13.7395 20.1494 13.545 20.1835 13.3663C20.0116 13.3613 19.8396 13.3739 19.6703 13.4039C19.5379 13.4611 19.4149 13.5383 19.3054 13.6328C17.3609 14.9407 15.3947 16.2203 13.4811 17.5721C12.4238 18.3217 11.3665 18.513 10.1577 18.0519C9.46524 17.7854 8.72329 17.6442 8.03079 17.3839C7.90493 17.3312 7.79207 17.2511 7.70017 17.1492C7.60827 17.0473 7.53961 16.9261 7.49906 16.7943C7.47124 16.6218 7.74019 16.3144 7.95041 16.2078C8.77893 15.7906 9.63217 15.408 10.4885 15.0442C14.3529 13.4049 18.2214 11.7709 22.094 10.1421C22.4371 9.99818 22.7919 9.88484 23.1544 9.80339C24.0756 9.60266 24.4652 9.94452 24.5023 10.8854Z" fill="#FFFDFB"/>
</g>
<defs>
<clipPath id="clip0_884_1726">
<rect width="32" height="32" fill="white" transform="translate(0.5)"/>
</clipPath>
</defs>
</svg>
