<svg width="33" height="32" viewBox="0 0 33 32" fill="none" xmlns="http://www.w3.org/2000/svg">
<g clip-path="url(#clip0_884_1714)">
<path d="M32.5 16.0157C32.5 24.8517 25.3223 32.0126 16.4753 32.0126C7.62829 32.0126 0.484569 24.8297 0.500025 15.9781C0.500025 7.19552 7.71795 -0.0187548 16.4938 0.0157482C25.3532 0.0251582 32.5 7.1767 32.5 16.0157ZM30.7999 16.0157C30.7999 8.102 24.3795 1.70953 16.4444 1.71581C8.61129 1.71581 2.20327 8.15533 2.20327 16.0157C2.20327 23.8762 8.60204 30.2686 16.4629 30.2749C24.3795 30.2875 30.803 23.895 30.7999 16.0189V16.0157Z" fill="#FFFDFB"/>
<path d="M17.7861 14.3369C17.7861 14.9642 17.7676 15.5916 17.7861 16.2189C17.7861 16.4259 17.8912 16.7741 18.0118 16.8023C18.1268 16.8178 18.2439 16.8078 18.3549 16.7732C18.4658 16.7385 18.5681 16.68 18.6547 16.6016C19.0911 16.1872 19.4799 15.7243 19.8139 15.2214C20.3767 14.2962 20.8925 13.3425 21.3595 12.364C21.6099 11.8433 21.9283 11.5735 22.5002 11.5955C23.072 11.6174 23.6563 11.5955 24.2343 11.6112C24.8124 11.6269 25.0257 11.8715 24.8124 12.4549C24.6329 12.9649 24.4063 13.4564 24.1354 13.9229C23.579 14.8639 22.9886 15.7641 22.392 16.6706C21.9159 17.3983 21.9283 17.53 22.5218 18.1793C23.2513 18.9791 23.9623 19.7978 24.6857 20.6102C24.8174 20.7456 24.9223 20.9053 24.9948 21.0807C25.103 21.4226 25.3039 21.868 25.1926 22.1158C25.0813 22.3636 24.5744 22.4294 24.2343 22.4294C21.8139 22.4044 22.4383 22.7431 20.7289 20.9207C20.2057 20.3585 19.6254 19.8539 18.9979 19.4151C18.2282 18.8819 17.8108 19.1422 17.7985 20.0707C17.7985 20.5318 17.7985 20.9929 17.7985 21.4539C17.7985 22.1879 17.6285 22.3573 16.8711 22.42C15.5192 22.5113 14.1748 22.1535 13.0411 21.4006C11.4615 20.4157 10.4044 18.9478 9.45536 17.3857C8.49927 15.9127 7.78809 14.2904 7.35024 12.5835C7.17713 11.8056 7.32861 11.5986 8.12613 11.608C8.64096 11.6362 9.1569 11.6362 9.67173 11.608C10.29 11.5547 10.5466 11.8527 10.7815 12.3765C11.3719 13.7127 11.9932 15.0332 12.6609 16.3287C12.9136 16.7586 13.2259 17.1495 13.5883 17.4892C13.6574 17.5609 13.7419 17.6155 13.8352 17.6487C13.9285 17.6819 14.028 17.6928 14.1261 17.6806C14.207 17.6268 14.2743 17.5545 14.3226 17.4695C14.3709 17.3845 14.3989 17.2892 14.4044 17.1913C14.4229 16.0401 14.4507 14.8827 14.3642 13.741C14.3333 13.2956 14.0365 12.8564 13.8077 12.4424C13.5234 11.9248 13.6347 11.6206 14.2127 11.6049C15.205 11.5798 16.1972 11.6049 17.1864 11.6049C17.6687 11.6049 17.7676 11.9186 17.7738 12.3169C17.7923 12.9976 17.7861 13.6688 17.7861 14.3369Z" fill="#FFFDFB"/>
</g>
<defs>
<clipPath id="clip0_884_1714">
<rect width="32" height="32" fill="white" transform="translate(0.5)"/>
</clipPath>
</defs>
</svg>
