<svg width="33" height="32" viewBox="0 0 33 32" fill="none" xmlns="http://www.w3.org/2000/svg">
<g clip-path="url(#clip0_884_1719)">
<path d="M16.5337 9.28808e-06C25.3511 9.28808e-06 32.5182 7.21145 32.5089 16.0408C32.4997 24.8701 25.2893 32.0314 16.4564 32C7.6235 31.9687 0.46878 24.7603 0.508957 15.9937C0.539863 7.1268 7.6884 -0.00939694 16.5337 9.28808e-06ZM16.5337 30.2661C24.3931 30.2661 30.7967 23.8981 30.8122 16.047C30.8122 8.14895 24.4549 1.75271 16.5461 1.7339C8.63722 1.71509 2.22112 8.11759 2.22112 15.9969C2.22112 23.8762 8.59392 30.2567 16.5151 30.2661H16.5337Z" fill="#FFFDFB"/>
<path d="M16.5156 30.2667C8.59445 30.2667 2.20622 23.8892 2.20313 15.9974C2.20004 8.10557 8.63464 1.7156 16.528 1.73442C24.4214 1.75323 30.8097 8.14946 30.7942 16.0476C30.7787 23.8986 24.375 30.2761 16.5156 30.2667ZM7.82799 24.8581C9.3022 24.3815 10.6095 23.9676 11.923 23.5224C12.2892 23.4076 12.6832 23.4242 13.0387 23.5694C14.0741 23.883 15.1311 24.2874 16.1973 24.3595C18.0683 24.4623 19.9203 23.9347 21.465 22.8589C23.0098 21.7831 24.1607 20.2194 24.7386 18.4111C25.3164 16.6029 25.2889 14.6516 24.6602 12.8609C24.0315 11.0702 22.8369 9.54057 21.2624 8.51008C19.6879 7.47959 17.8218 7.00604 15.9545 7.16314C14.0872 7.32024 12.3235 8.09916 10.9378 9.37869C9.55211 10.6582 8.62225 12.3666 8.2929 14.2379C7.96355 16.1092 8.25321 18.0384 9.11678 19.7254C9.22189 19.9233 9.28048 20.1431 9.28799 20.3677C9.29549 20.5924 9.25172 20.8157 9.16005 21.0203C8.70574 22.2306 8.30703 23.4628 7.82799 24.8581Z" fill="#222222"/>
<path d="M7.82812 24.8573C8.30717 23.4621 8.70587 22.2298 9.1571 21.0196C9.24876 20.8149 9.29253 20.5916 9.28503 20.367C9.27752 20.1423 9.21893 19.9225 9.11382 19.7246C8.24589 18.0344 7.95332 16.1004 8.28168 14.2239C8.61003 12.3474 9.54086 10.6338 10.9292 9.34991C12.3176 8.06602 14.0855 7.28398 15.9576 7.1256C17.8297 6.96721 19.7008 7.44136 21.2796 8.47421C22.8584 9.50706 24.0562 11.0406 24.6864 12.836C25.3166 14.6314 25.3438 16.5878 24.7638 18.4006C24.1839 20.2133 23.0293 21.7806 21.4799 22.8582C19.9304 23.9359 18.0732 24.4635 16.1975 24.3588C15.1312 24.2867 14.0742 23.8947 13.0389 23.5687C12.6833 23.4235 12.2894 23.4069 11.9232 23.5216C10.6189 23.9669 9.30234 24.3807 7.82812 24.8573Z" fill="#FFFDFB"/>
<path d="M12.516 13.7989C12.5048 13.4873 12.5616 13.1771 12.6824 12.8904C12.8031 12.6036 12.9848 12.3475 13.2145 12.1403C13.7801 11.6198 14.4507 11.7609 14.7598 12.4538C14.868 12.7015 14.9576 12.9587 15.0689 13.2032C15.3285 13.7425 15.3779 14.2285 14.8773 14.6737C14.5682 14.9622 14.6176 15.3008 14.8556 15.63C15.4633 16.5088 16.2754 17.2217 17.2199 17.7057C17.6928 17.9314 18.0698 17.9063 18.3233 17.4235C18.6725 16.7588 19.133 16.7682 19.6924 17.1099C19.8717 17.2129 20.0564 17.3061 20.2456 17.389C21.1264 17.8311 21.1913 18.6776 20.3785 19.311C20.0927 19.5377 19.7577 19.6921 19.4014 19.7613C19.0451 19.8306 18.6776 19.8127 18.3295 19.7092C17.1136 19.3865 15.9961 18.7615 15.0781 17.8907C14.0702 16.9946 13.2612 15.8917 12.7046 14.6549C12.5937 14.3827 12.53 14.0931 12.516 13.7989Z" fill="#222222"/>
</g>
<defs>
<clipPath id="clip0_884_1719">
<rect width="32" height="32" fill="white" transform="translate(0.5)"/>
</clipPath>
</defs>
</svg>
