<svg xmlns="http://www.w3.org/2000/svg" style="display: none;">
	<symbol id="telegram" width="32" height="32" viewBox="0 0 32 32" fill="none" xmlns="http://www.w3.org/2000/svg">
		<g clip-path="url(#clip0_952_4104)">
			<path d="M2.51111e-05 16.0012C2.51111e-05 7.15042 7.17844 0.00585938 16.017 0.00585938C24.7412 0.00585938 31.9784 7.21942 31.9969 15.7973C32.0217 24.8237 24.8865 32.0498 15.8161 32.0059C7.10737 31.9588 -0.0154323 24.7515 2.51111e-05 16.0012ZM1.70653 16.0012C1.70653 23.842 8.09044 30.2683 15.949 30.2809C23.8076 30.2934 30.2811 23.9141 30.2873 16.1047C30.2886 14.2091 29.9202 12.3321 29.2032 10.5817C28.4862 8.83132 27.4349 7.24215 26.1099 5.90576C24.7849 4.56938 23.2123 3.5122 21.4827 2.79513C19.7531 2.07807 17.9008 1.71529 16.0325 1.72771C8.10899 1.71202 1.71581 8.09132 1.70653 16.0012Z" fill="currentColor" />
			<path d="M24.0023 10.8854C23.5478 13.7803 23.0995 16.6782 22.6358 19.5699C22.4689 20.6049 22.2803 21.6336 22.0763 22.6592C21.8104 23.9733 21.0252 24.3654 19.9122 23.6534C18.2088 22.5494 16.5425 21.3827 14.8824 20.2035C14.1713 19.7017 14.1466 19.2375 14.7865 18.6008C16.122 17.2616 17.4916 15.9537 18.8456 14.6333C19.104 14.3922 19.3457 14.1334 19.569 13.8587C19.6618 13.7395 19.6494 13.545 19.6835 13.3663C19.5116 13.3613 19.3396 13.3739 19.1703 13.4039C19.0379 13.4611 18.9149 13.5383 18.8054 13.6328C16.8609 14.9407 14.8947 16.2203 12.9811 17.5721C11.9238 18.3217 10.8665 18.513 9.65774 18.0519C8.96524 17.7854 8.22329 17.6442 7.53079 17.3839C7.40493 17.3312 7.29207 17.2511 7.20017 17.1492C7.10827 17.0473 7.03961 16.9261 6.99906 16.7943C6.97124 16.6218 7.24019 16.3144 7.45041 16.2078C8.27893 15.7906 9.13217 15.408 9.98851 15.0442C13.8529 13.4049 17.7214 11.7709 21.594 10.1421C21.9371 9.99818 22.2919 9.88484 22.6544 9.80339C23.5756 9.60266 23.9652 9.94452 24.0023 10.8854Z" fill="currentColor" />
		</g>
		<defs>
			<clipPath id="clip0_952_4104">
				<rect width="32" height="32" fill="currentColor" />
			</clipPath>
		</defs>
	</symbol>
	<symbol id="vkontakte" width="32" height="32" viewBox="0 0 32 32" fill="none" xmlns="http://www.w3.org/2000/svg">
		<g clip-path="url(#clip0_952_4109)">
			<path d="M32 16.0157C32 24.8517 24.8223 32.0126 15.9753 32.0126C7.12829 32.0126 -0.0154309 24.8297 2.50328e-05 15.9781C2.50328e-05 7.19552 7.21795 -0.0187548 15.9938 0.0157482C24.8532 0.0251582 32 7.1767 32 16.0157ZM30.2999 16.0157C30.2999 8.102 23.8795 1.70953 15.9444 1.71581C8.11129 1.71581 1.70327 8.15533 1.70327 16.0157C1.70327 23.8762 8.10204 30.2686 15.9629 30.2749C23.8795 30.2875 30.303 23.895 30.2999 16.0189V16.0157Z" fill="currentColor" />
			<path d="M17.2859 14.3369C17.2859 14.9642 17.2673 15.5916 17.2859 16.2189C17.2859 16.4259 17.391 16.7741 17.5115 16.8023C17.6266 16.8178 17.7437 16.8078 17.8546 16.7732C17.9656 16.7385 18.0679 16.68 18.1545 16.6016C18.5908 16.1872 18.9797 15.7243 19.3137 15.2214C19.8764 14.2962 20.3923 13.3425 20.8593 12.364C21.1097 11.8433 21.4281 11.5735 21.9999 11.5955C22.5718 11.6174 23.156 11.5955 23.7341 11.6112C24.3121 11.6269 24.5254 11.8715 24.3121 12.4549C24.1327 12.9649 23.906 13.4564 23.6352 13.9229C23.0788 14.8639 22.4883 15.7641 21.8917 16.6706C21.4157 17.3983 21.4281 17.53 22.0216 18.1793C22.7511 18.9791 23.4621 19.7978 24.1854 20.6102C24.3171 20.7456 24.422 20.9053 24.4945 21.0807C24.6027 21.4226 24.8037 21.868 24.6924 22.1158C24.5811 22.3636 24.0741 22.4294 23.7341 22.4294C21.3137 22.4044 21.9381 22.7431 20.2287 20.9207C19.7054 20.3585 19.1252 19.8539 18.4976 19.4151C17.7279 18.8819 17.3106 19.1422 17.2982 20.0707C17.2982 20.5318 17.2982 20.9929 17.2982 21.4539C17.2982 22.1879 17.1282 22.3573 16.3709 22.42C15.019 22.5113 13.6746 22.1535 12.5409 21.4006C10.9613 20.4157 9.90411 18.9478 8.95512 17.3857C7.99903 15.9127 7.28784 14.2904 6.85 12.5835C6.67689 11.8056 6.82836 11.5986 7.62589 11.608C8.14071 11.6362 8.65666 11.6362 9.17148 11.608C9.78972 11.5547 10.0463 11.8527 10.2812 12.3765C10.8717 13.7127 11.493 15.0332 12.1607 16.3287C12.4134 16.7586 12.7257 17.1495 13.088 17.4892C13.1572 17.5609 13.2416 17.6155 13.3349 17.6487C13.4282 17.6819 13.5278 17.6928 13.6259 17.6806C13.7068 17.6268 13.774 17.5545 13.8223 17.4695C13.8707 17.3845 13.8987 17.2892 13.9041 17.1913C13.9227 16.0401 13.9505 14.8827 13.8639 13.741C13.833 13.2956 13.5362 12.8564 13.3075 12.4424C13.0231 11.9248 13.1344 11.6206 13.7125 11.6049C14.7047 11.5798 15.697 11.6049 16.6862 11.6049C17.1684 11.6049 17.2673 11.9186 17.2735 12.3169C17.2921 12.9976 17.2859 13.6688 17.2859 14.3369Z" fill="currentColor" />
		</g>
		<defs>
			<clipPath id="clip0_952_4109">
				<rect width="32" height="32" fill="currentColor" />
			</clipPath>
		</defs>
	</symbol>
	<symbol id="logo" width="117" height="26" viewBox="0 0 117 26" fill="none" xmlns="http://www.w3.org/2000/svg">
		<path d="M3.75578 0.785156V16.7704L16.8259 0.785156H20.0633V23.4074H16.3076V6.82963L2.60649 23.4074H0V0.785156H3.75578Z" fill="black" />
		<path d="M50.9658 0.785156H66.034V4.04443H60.776V23.4074H57.0202V4.04443H51.0109L50.9658 0.785156Z" fill="black" />
		<path d="M96.9594 0.785156H100.715V10.3112L111.276 0.785156H116.144L104.524 11.1555L100.678 14.6074V23.4222H96.9219L96.9594 0.785156Z" fill="black" />
		<path d="M46.2568 6.17622L46.3922 6.09434L46.3032 5.96346C44.9097 3.9154 42.8896 2.36006 40.5376 1.5237C38.1637 0.679278 35.5809 0.591177 33.1535 1.27178C30.7421 1.93357 28.6096 3.3418 27.0705 5.28936L27.0705 5.28938C25.554 7.20914 24.7208 9.56834 24.7001 12.0023L24.7001 12.0032C24.6945 14.4355 25.5008 16.8018 26.9945 18.7367L26.9948 18.7371C28.5193 20.6956 30.6347 22.1259 33.0359 22.8223L33.0361 22.8224C35.4591 23.5214 38.0428 23.4571 40.427 22.6386L40.4271 22.6386C42.7857 21.8259 44.8201 20.2923 46.2342 18.2602L46.3238 18.1314L46.1911 18.0476L43.369 16.2663L43.2479 16.1898L43.1659 16.3073C42.1892 17.7066 40.7817 18.7594 39.151 19.3096L39.1503 19.3098C37.5127 19.8725 35.7378 19.9163 34.0737 19.4353L34.0735 19.4352C32.4237 18.9613 30.9719 17.9782 29.9313 16.6308L29.9311 16.6306C28.9037 15.3063 28.3494 13.6846 28.3538 12.0178C28.3658 10.346 28.9365 8.72454 29.978 7.40463C31.0344 6.06858 32.4979 5.1017 34.1536 4.64644L34.1542 4.64628C35.8232 4.18014 37.5981 4.24019 39.2307 4.818C40.8457 5.39146 42.2316 6.45995 43.1853 7.86637L43.2652 7.9842L43.387 7.91056L46.2568 6.17622Z" fill="black" stroke="black" stroke-width="0.3" />
		<path d="M93.2158 12.0634L93.2159 12.0634L93.2158 12.0588C93.1933 10.5602 92.8716 9.08072 92.2692 7.70484C91.6668 6.32896 90.7956 5.08374 89.7053 4.04019C88.615 2.99664 87.327 2.17521 85.915 1.62273C84.5037 1.07052 82.996 0.797779 81.4779 0.820007C78.412 0.776917 75.4536 1.93555 73.2526 4.04216C71.051 6.14933 69.7874 9.03269 69.7402 12.0588L69.7401 12.0588L69.7402 12.0634C69.7874 15.0895 71.051 17.9728 73.2526 20.08C75.4536 22.1866 78.412 23.3453 81.478 23.3022C84.544 23.3453 87.5024 22.1866 89.7034 20.08C91.9049 17.9728 93.1685 15.0895 93.2158 12.0634ZM73.4483 12.0588L73.446 11.9111H73.4248C73.4955 9.89223 74.3554 7.97563 75.8286 6.56507C77.3389 5.11903 79.3702 4.3232 81.4758 4.35318L81.4758 4.35323L81.4796 4.35319C83.5807 4.33026 85.6049 5.12921 87.1094 6.5745C88.6132 8.01917 89.4753 9.99195 89.5076 12.061C89.4735 14.129 88.6108 16.1 87.1071 17.5432C85.6028 18.9871 83.5796 19.7851 81.4796 19.7622L81.4796 19.7622L81.4762 19.7622C79.3758 19.7869 77.3515 18.9894 75.8468 17.5452C74.3423 16.101 73.48 14.1281 73.4483 12.0588Z" fill="black" stroke="black" stroke-width="0.3" />
		<path d="M103.697 12.0801C104.718 15.4267 108.688 22.3858 116.374 23.4399C112.77 15.1665 106.626 12.1382 103.697 12.0801Z" fill="#769D22" />
	</symbol>
</svg>
